<?xml version="1.0" encoding="utf-8"?>
<!-- Generator: Adobe Illustrator 24.1.3, SVG Export Plug-In . SVG Version: 6.00 Build 0)  -->
<svg version="1.1" id="Capa_1" xmlns="http://www.w3.org/2000/svg" xmlns:xlink="http://www.w3.org/1999/xlink" x="0px" y="0px"
	 viewBox="0 0 1080 1080" style="enable-background:new 0 0 1080 1080;" xml:space="preserve">
<style type="text/css">
	.st0{fill:#FFFFFF;}
	.st1{fill:#921CF9;}
</style>
<path class="st0" d="M302.96,488.79L336,458.8v104.96c0,14.2-2.74,26.57-8.23,37.11c-5.49,10.54-13.57,18.73-24.24,24.57
	c-10.67,5.84-23.8,8.76-39.4,8.76c-15.6,0-28.77-2.92-39.53-8.76c-10.76-5.84-18.88-14.02-24.37-24.57
	c-5.49-10.54-8.23-22.91-8.23-37.11V458.8l33.04,29.99c11.11,10.08,17.45,24.39,17.45,39.4v32.82c0,6.38,0.79,11.61,2.36,15.67
	c1.57,4.06,3.95,7.06,7.15,8.98c3.19,1.92,7.23,2.89,12.13,2.89c4.81,0,8.79-0.96,11.93-2.89c3.15-1.92,5.51-4.92,7.08-8.98
	c1.57-4.07,2.36-9.29,2.36-15.67v-32.82C285.51,513.18,291.84,498.87,302.96,488.79z"/>
<path class="st1" d="M445.97,496.64c8.46,0,16.67,1.66,24.62,4.97c7.95,3.32,14.51,8.59,19.67,15.83c5.16,7.24,7.74,16.74,7.74,28.5
	V615h-55v-60.27c0-5.95-1.46-10.67-4.39-14.16c-2.93-3.49-6.85-5.23-11.77-5.23c-3.25,0-6.25,0.79-8.99,2.37
	c-2.74,1.58-4.9,3.82-6.48,6.7c-1.58,2.88-2.37,6.33-2.37,10.32V615h-55V500h55v14.43c1.21-2.99,3.58-5.83,7.11-8.54
	c3.53-2.71,7.9-4.92,13.11-6.65C434.43,497.5,440.01,496.64,445.97,496.64z"/>
<path class="st1" d="M565.03,568c0.46,2.23,1.65,4.12,3.56,5.65c1.91,1.53,4.37,2.72,7.39,3.56c3.02,0.84,6.44,1.26,10.25,1.26
	c4.09,0,8.09-0.19,12-0.56c3.91-0.37,7.49-0.98,10.74-1.81c3.25-0.84,5.86-1.91,7.81-3.21l19.67,34.46
	c-1.77,1.12-4.67,2.49-8.72,4.12c-4.05,1.63-9.72,3.09-17.02,4.4c-7.3,1.3-16.72,1.95-28.25,1.95c-12.93,0-24.65-2.19-35.16-6.56
	c-10.51-4.37-18.86-11.14-25.04-20.3c-6.19-9.16-9.28-20.81-9.28-34.95c0-11.16,2.56-21.23,7.67-30.21
	c5.11-8.97,12.51-16.09,22.18-21.35c9.67-5.25,21.39-7.88,35.16-7.88c13.3,0,24.81,2.23,34.53,6.7
	c9.72,4.46,17.21,11.32,22.46,20.58c5.25,9.26,7.88,21.09,7.88,35.51c0,0.75-0.02,2.21-0.07,4.39c-0.05,2.19-0.16,3.61-0.35,4.25
	H565.03z M591.12,546c-0.09-3.07-0.68-5.63-1.74-7.67c-1.07-2.04-2.49-3.56-4.26-4.53c-1.77-0.98-3.86-1.46-6.28-1.46
	c-2.14,0-4.16,0.44-6.07,1.33c-1.91,0.88-3.47,2.33-4.67,4.33c-1.21,2-1.86,4.67-1.95,8.02H591.12z"/>
<path class="st1" d="M754.33,552.67L802.52,615h-60.65l-20.45-28.29L700.82,615H644.8l48.19-57.85L649.56,500h61.07l14.43,22.41
	L740.75,500h54.91L754.33,552.67z"/>
<path class="st1" d="M805,500h17v-47h54v47h23v45h-23v14.79c0,3.35,0.39,6.42,1.18,9.21c0.79,2.79,2.89,4.19,6.32,4.19
	c1.85,0,3.59-0.46,5.21-1.39c1.62-0.93,2.61-1.58,2.99-1.95l17.77,38.64c-0.74,0.65-3.12,1.77-7.15,3.35
	c-4.03,1.58-9.12,3.05-15.27,4.39c-6.16,1.35-12.89,2.02-20.2,2.02c-13.14,0-23.9-3.58-32.27-10.74
	c-8.38-7.16-12.56-18.09-12.56-32.79V545h-17V500z"/>
</svg>
