<svg id="Capa_1" data-name="Capa 1" xmlns="http://www.w3.org/2000/svg" viewBox="0 0 408.45 103.16"><defs><style>.cls-1{fill:#fff;}.cls-2{fill:#921cf9;}</style></defs><path class="cls-1" d="M109.17,216.47,128,199.4v59.75q0,12.12-4.69,21.13a33,33,0,0,1-13.8,14q-9.1,5-22.43,5t-22.5-5a32.88,32.88,0,0,1-13.87-14q-4.69-9-4.69-21.13V199.4l18.81,17.07a30.3,30.3,0,0,1,9.93,22.43v18.68a24.88,24.88,0,0,0,1.35,8.92,9.85,9.85,0,0,0,4.07,5.12,13.2,13.2,0,0,0,6.9,1.64,12.74,12.74,0,0,0,6.79-1.64,10,10,0,0,0,4-5.12,25.13,25.13,0,0,0,1.34-8.92V238.9A30.27,30.27,0,0,1,109.17,216.47Z" transform="translate(-46 -196.09)"/><path class="cls-2" d="M190.58,220.94a36.06,36.06,0,0,1,14,2.83,25.76,25.76,0,0,1,11.2,9Q220.2,239,220.2,249v39.32H188.89V254a12.11,12.11,0,0,0-2.5-8.06,8.29,8.29,0,0,0-6.7-3,10.07,10.07,0,0,0-5.12,1.35,9.58,9.58,0,0,0-3.68,3.81,12.08,12.08,0,0,0-1.35,5.88v34.31H138.22V222.85h31.32v8.22a12,12,0,0,1,4-4.87,25.14,25.14,0,0,1,7.47-3.78A29.87,29.87,0,0,1,190.58,220.94Z" transform="translate(-46 -196.09)"/><path class="cls-2" d="M258.36,261.56a5.45,5.45,0,0,0,2,3.22,11.72,11.72,0,0,0,4.21,2,22.11,22.11,0,0,0,5.83.71c2.33,0,4.61-.1,6.83-.32a39,39,0,0,0,6.12-1,14.45,14.45,0,0,0,4.44-1.82L299,284a33.58,33.58,0,0,1-5,2.35,51.11,51.11,0,0,1-9.69,2.5,94.93,94.93,0,0,1-16.09,1.11,51.59,51.59,0,0,1-20-3.73A31.29,31.29,0,0,1,234,274.63q-5.28-7.81-5.28-19.89a34.13,34.13,0,0,1,4.37-17.2,31.48,31.48,0,0,1,12.62-12.16q8.26-4.47,20-4.48,11.36,0,19.66,3.81a27.53,27.53,0,0,1,12.78,11.72q4.49,7.9,4.49,20.21c0,.43,0,1.26,0,2.5a11.93,11.93,0,0,1-.2,2.42ZM273.21,249a10,10,0,0,0-1-4.37,6,6,0,0,0-2.42-2.58,7.37,7.37,0,0,0-3.58-.83,8,8,0,0,0-3.45.76,6,6,0,0,0-2.66,2.46,9.24,9.24,0,0,0-1.11,4.57h14.21Z" transform="translate(-46 -196.09)"/><path class="cls-2" d="M366.13,252.84l27.43,35.48H359l-11.65-16.11-11.72,16.11h-31.9l27.44-32.93-24.73-32.54h34.77l8.22,12.76,8.93-12.76h31.26Z" transform="translate(-46 -196.09)"/><path class="cls-2" d="M395,222.85h9.68V196.09h30.74v26.76h13.1v25.62h-13.1v8.42a19.16,19.16,0,0,0,.68,5.24c.45,1.59,1.64,2.39,3.59,2.39a5.85,5.85,0,0,0,3-.79,10.53,10.53,0,0,0,1.7-1.11l10.12,22a19.29,19.29,0,0,1-4.07,1.91,57.85,57.85,0,0,1-8.7,2.5,53.51,53.51,0,0,1-11.49,1.15q-11.24,0-18.38-6.11t-7.15-18.67V248.47H395V222.85Z" transform="translate(-46 -196.09)"/></svg>